<svg width="20" height="20" viewBox="0 0 20 20" fill="none" xmlns="http://www.w3.org/2000/svg">
  <g clip-path="url(#clip0_104_748)">
    <path d="M9.99984 18.3334C14.6022 18.3334 18.3332 14.6024 18.3332 10C18.3332 5.39765 14.6022 1.66669 9.99984 1.66669C5.39746 1.66669 1.6665 5.39765 1.6665 10C1.6665 14.6024 5.39746 18.3334 9.99984 18.3334Z" stroke="#161616" stroke-width="1.8" stroke-linecap="round" stroke-linejoin="round" />
    <path d="M7.5752 7.49999C7.77112 6.94304 8.15782 6.47341 8.66682 6.17426C9.17583 5.87512 9.77428 5.76577 10.3562 5.86558C10.9381 5.96539 11.4659 6.26792 11.8461 6.71959C12.2263 7.17126 12.4344 7.74292 12.4335 8.33332C12.4335 9.99999 9.93353 10.8333 9.93353 10.8333" stroke="#161616" stroke-width="1.8" stroke-linecap="round" stroke-linejoin="round" />
    <path d="M10 14.1667H10.0125" stroke="#161616" stroke-width="1.8" stroke-linecap="round" stroke-linejoin="round" />
  </g>
  <defs>
    <clipPath id="clip0_104_748">
      <rect width="20" height="20" fill="white" />
    </clipPath>
  </defs>
</svg>